<svg width="138" height="70" fill="none" xmlns="http://www.w3.org/2000/svg"><path d="M138 0H0l59.5 65.7a12.6 12.6 0 0019 0L138 0z" fill="#81B3D3"/><path d="M36.7.5l32.1 37.8 32-37.6L36.8.5z" fill="#23A9E1"/><path fill-rule="evenodd" clip-rule="evenodd" d="M78.4 14.7H61.1l-1-.4c-2.3-.8-5.7-2.1-2.8-4 1.5-1 2.6-.8 3.6-.7 1 .2 2 .3 3.5-1 2.6-2.3 6.3 1.3 7.5 2.6l.5.3c1.2-1 3.2.8 4.7 2.1.5.5 1 1 1.3 1.1zm9.4-3.5l-9.8.1c3.9-4.5 5.6-4 9.8 0z" fill="#fff"/><path fill-rule="evenodd" clip-rule="evenodd" d="M36 0h66v15L69 54.2l-.2.3-32.8-40V0zm4 1.2V3l-1.6-2H40zm57.6 0v2.4l2.1-2.4h-2zM48.5 13l-.1-.1.8 1 19.6 23.3L49.2 14c2.7-4.6 6.5-5.3 10.5-.3.7.8 1 1.5 1.4 2.1.5.9.8 1.4 1.4 1.5 1.1 0 1.7-.7 2.3-1.5.4-.6.8-1.2 1.6-1.3 1.4-.4 2 0 2.7.3a5.4 5.4 0 001.4.6c.6.2 1.1.3 1.5 1l.3.7c.4 1 .8 1.9 2.6 2.2 2.5.4 4.7-.5 7-1.5 1.5-.7 3.2-1.5 5-1.7l2.6-3a39 39 0 00-6.2-5C80 6 74.6 3.3 68.8 3.3c-5.8 0-11 2.7-14.3 5a37.2 37.2 0 00-6 4.9zM97 1H94V8L97 4.2v-3zm-7.3 11.5V1.2h3.6v7.4l-3.5 4zm-.5-.5V2.2l-3.5 7c1.2.9 2.4 1.9 3.5 3zM85.2 2v6.8a41.5 41.5 0 00-3.7-2.4L85.2 2zm-4.4 4V1.8l-3 2.8 3 1.5zm.6-4.7H85l-3.7 4.5V1.2zm7.9 0h-3.6v7l3.6-7zm-12.4 0h3.8l-3.5 3H77h-.1v-3zM76.4 4V1.6L73.3 3l3 .9zm-4.2-2.4V3L70 2.6l2.2-1zm-4.6 1l-2.2-1v1.3c.7-.2 1.5-.2 2.2-.3zm-6.3-1l3 1.5-3 .8V1.6zm.3-.4l3.3 1.6V1.2h-3.3zm6.8 1.2l-2.7-1.2h2.7v1.2zM72 1.2h-2.8v1.3l2.8-1.3zm1 0H76l-3.3 1.5V1.2zm-16 0l3.5 3h.4v-3h-3.9zm-.1.5l3 2.8-3 1.5V1.7zM56 6.3L52.5 2v6.9c1.1-1 2.4-1.7 3.6-2.5zm-7.8-4L52 9.1c-1.3 1-2.5 2-3.6 3.1v-10zm0-1.1l3.7 7v-7h-3.7zm8 4.5l-3.7-4.5h3.7v4.5zm-15.8-2l3.2 3.8V1.2h-3.2v2.5zm3.8-2.5h3.5v11.1l-3.5-4.2v-7z" fill="#491213"/><path d="M66.2 46l2.6-4.2 2.6 4.2-2.6 4.3-2.6-4.3z" fill="#23A9E1"/><path fill-rule="evenodd" clip-rule="evenodd" d="M52.9 11.7c-1.8.6-2.9 3-.3 3.1 0-1.6.4-2.3.5-.3h1.4c1.6-.1 3.4-.1 4.8-.6-1.2-1-4.7-2.7-6.4-2.2zM58.8 23c-5.6 0-1.8-8.7 0-8.1 2.3.7 2 8.2 0 8zm2.5-2.9c0 2 1 1.7 1.5 0l-.1 1.1c-.1 1-.2 1.9.5 2.4 1.3 1.1 3.9-.4 4.7-1.4-1.6-.7.4-4.4 1.6-5-1.3 2.6-2.7 6.4.5 6.4-1.6 0 1.3-6.7 1.3-6.7-.1-.6-.6-.7-1.2-.7-.4-.1-.8-.2-1.3-.5-1.5-1-2.4-.1-3.2.8l-1 1c-.5.3-1 .4-1.4.5-1 .3-1.8.5-1.9 2.1zm13 10.5c-3.5-2-2.6-3.6.1-5 .4-.1.9-.4 1.4-.8 1.6-1 3.7-2.3 4.8-1.7l-6.4 7.5zM70.6 33c-1.7-.1-3.5-.2-5 .1 1.1.3 4 1.2 1.3 2 1 1.3 2.6 1.2 3.7 0l-.7-.4-.4-.3c1.1-.2 2.1-.8 2.3-1.3l-1.2-.1zm-.3-1.5c.8-.8 1.8-.8 2.7 0-.5 1.4-9 .9-10.1-1.7h2c2 .1 4.5.1 5.4 1.7zm-4-2.2l-2-.3c-2-.2-3.9-.4-1.4-1.4 1-.5 6.5 0 3.3 1.7zm1.9-3c-.5-1 .3-2.3 1.7-1.4 1.2.8-.6 2-1.7 1.4zm-2.9.1c-2.2.7-5.3-.8-1.6-1.5 2.3-.5 4.7.5 1.6 1.5z" fill="#DC6243"/><path d="M71.8 25.8c-3-3 4.3-2.7 5.5-3.7.8.3 7-5.4 8.5-5-1.1 1.2-3.4 5.2-5 5.2-1.4 0-2.6-.2-3.6.7-1.5 1.4-3.9 2-5.4 2.8z" fill="#F49774"/><path d="M72.7 22.2c-1.6.8-3-2.6-.3-2.2 1.8.2 3.7-.2 5.4.1a5.6 5.6 0 01-5 2z" fill="#F4B1A4"/><path fill-rule="evenodd" clip-rule="evenodd" d="M39.3 14.5c.3 1.2 1.5 1.6 2.7 1.3v.2h.1l-.5.3-1.6.6a4 4 0 00-1-1.1l-.6-.7c-.6-.8-1-1.7-.8-2.6.1-1.8 1.9-3.7 3.7-3.4 1 .1 1.7.8 2.3 1.5l.4.5c.3.5.6.9 1.1 1.1l-1.7 2.2c-.3-.2-.2-.4-.1-.7v-.2c.3-.5.4-1 .1-1.6-.5-1.2-1.9-1.2-2.8-.5-1 .6-1.7 1.9-1.3 3zm8.4 1.9h.3c0 .1.2.2.3 0l-1.6-2c-.2-.2-.5-.5-.4 0 0 .5-4 3.8-4.3 3.9h-.3c-.1-.1-.2-.2-.4 0l.6.7a560.3 560.3 0 001 1.2l.3.4c.2.2.2-.3.2-.4a39.3 39.3 0 014.3-3.8zm3.4 4.5c.3.4.6.9.5 1.4l-.1.5c-.2.3-.3.6 0 .7l1.4-1.8a22 22 0 01-3.5-4.2l-2 1c0 .4.3.3.7.2h.4c.6 0 1 .3 1.3.7l-.4.3c-1.2 1-3.5 3-3.7 3l-.3-.1c-.2 0-.4-.2-.4 0s.3.5.5.7l.1.1 1.5 1.7c.2 0 .1-.2 0-.3v-.5l3.3-2.8.7-.6zM65 36.5l-.5-.5-.2-.3-.1.1v.6c-.6.8-3.8 3.2-4 3.4h-.5c-.2 0-.3 0-.4.2l.6.7a13 13 0 001.3 1.6c.2 0 .2-.2.2-.5v-.2c0-.2 1.5-1.4 2.1-2h.2c.1-.2.3.1.5.3v.1c.2.3.3.7.2 1v.3c-.2.2-.3.4-.1.5l.7-.9 1-1c0-.2-.2-.2-.3-.1H65l-.7-.8.2-.2.8-.5c.6-.2 1 1 1.1 1.4v1.1l-.1.2c0 .1-.2.3 0 .4l1.5-1.9h-.3a20 20 0 01-2.5-3zm-8.7-5.2c.6-.5 1.3-.7 2-.8 1.1 0 2.3.5 3 1.5 1.2 1.5 1 3.6-.4 4.8-1.7 1.2-3.8 1-5-.7-1.2-1.5-1-3.6.4-4.8zm3.2.6c1-.1 1.5.8 1 1.8-.4 1-1.4 2-2.4 2.4-1.1.4-2-.6-1.5-1.7.4-1 1.4-2 2.4-2.4h.5zM57 27.4l-.3-.1c-.7-.1-1.5 0-2.2.2l-.9.1c-.6.1-2.1 1.6-2.2 1.9v.7c-.2 0-.4-.3-.5-.5v-.1l-1.7-2c.1-.1.3 0 .4 0 .1 0 .2.2.4.1.2 0 1.2-.9 1.6-1.2l.1-.2c.6-.4 1-2.1 1.2-2.7v-.2l.1-1c.3-.3.4 0 .5.2l.2.2 1.8 2c-.2.3-.3.2-.4.1h-.5l-.7 1.8v.1h.1c.6-.1 1.8-.3 2-.6V26c-.1-.1-.2-.2 0-.3l1.5 1.7c-.1.2-.3.2-.5 0zM81 34v1.4c0 .5-.6 1.9-1.3 1.5-.6-.3-1-.7-1.5-1.2l-.6-.5c.5-.6 1-1.1 1.8-.8.3 0 .5 0 .2-.2l-.3-.2a9 9 0 00-1.8-1v.4c.2.2.3.4.2.6l-.5.6-.1.2-.3-.2c-.4-.3-1-.7-.4-1.3.3-.4.8-.7 1.3-.8h.5c.4 0 .8 0 .8-.2a666.4 666.4 0 00-2-1c0 .4-1.4 2-2.3 3l-.5.5v.1l-.4.5c0 .2.3 0 .4 0 .3-.1 4.5 3.3 4.6 3.6v.2c-.1.1-.1.2 0 .2l.1.2.3-.4c.8-1 2.7-3.6 3.2-3.7l-1.5-2.4c-.3.2-.2.5 0 .7v.2zm-7.8 5.2c.7-.4 2.6-1.5 3.7-.8 1.2 1 1 2.5.2 3.6l-1.3 1.4c-.4.3-.7.5-.7 1l-2.3-1.7c.1-.3.3-.1.6 0l.2.1c.4.1.8.2 1.2 0 .7-.1 1.4-.8 1.6-1.5.2-.8-.6-1-1.3-.8l-.9.6-.3.2c-.7.4-1.5.7-2.2.3a2 2 0 01-1-1.7c0-.8.4-1.5.9-2l.4-.5c.4-.3.9-.7 1-1.1l1.6 1c.1.1 0 .2 0 .2v.1h-1c-.6 0-1.2.3-1.5.8-.3.6.2 1.3.9 1l.2-.2zm21.3-28.9v.1l-.8 1-.8 1h-.1c-.2.2-.2.3 0 .4.6-.3 3.5 4.8 3.3 5.5-.5.2-4.5-3.3-4.6-3.5v-.2c0-.2 0-.5-.2-.4l-.4.5-.1.2-.6.7c.1.2.2.1.3 0h.3c.2 0 1 .7 1.4 1a78.8 78.8 0 00-1.8.1c-.4 0-.4 0-.5-.2 0-.2 0-.3-.2-.4L88.2 18l-.8 1v.2h.4c.3-.2 4.2 3.2 4.4 3.3v.4c0 .2 0 .3.2.4l1.2-1.4v-.1c-.1-.2-.2-.1-.3 0H93c-.3 0-2.3-1.6-3.4-2.5l-.5-.4 5.4-.2c.2 0 .7.6.7.8l-.1.2v.3l.5-.5.5-.6.2-.2.1-.2.1-.1.1-.1 1-1.3c-.2-.2-.3 0-.4 0h-.5l-.8-1.4c-.2-.3.2-.6.4-.7l.1-.1c.5-.3 2.1-.8 2.3.2v.3c-.1 0-.1.1 0 .2 0 0 0 .1.1 0L101 13h-.1l-.2-.2c-.4.5-5.4-1.5-5.8-1.8l-.2-.3c0-.1 0-.3-.2-.3zm2.1 3.5l-2.3-1 1 1.8.7-.5.6-.3zm-8.9 6.8c-1 0-2.2.5-3 1.4a3.5 3.5 0 00.4 4.9c1.5 1.3 3.7 1 5-.5a3.5 3.5 0 00-2.4-5.8zM88 23a4 4 0 00-1.7-.7c-.4 0-.7 0-1 .4-.8 1 .5 2.1 1.2 2.7.8.5 2.1 1.3 3 .4 0-.2 0-.1 0 0 .7-1.1-.7-2.3-1.5-2.8zm-4.8 3.6a4 4 0 00-3.3 1.6l-1.6 1.8-.4.5c.2.2.3.1.4 0h.5c.2.2 4 3.4 4 3.6v.3l.2.2c0 .1 3-3.4 3.2-4a2.8 2.8 0 00-.9-3.2 4 4 0 00-2.1-.8zm-.8 1.6H82a3 3 0 00-2 .8c-.2.2 3.8 3.4 4 3.2l.3-.2.1-.2c1.3-1.5-.7-3.2-2.1-3.6z" fill="#fff"/></svg>