<svg width="458" height="352" fill="none" xmlns="http://www.w3.org/2000/svg"><path fill-rule="evenodd" clip-rule="evenodd" d="M181.8 56l-2.9 5h-2.7l-.9 1.4h2.8l-6 10.4c-1.4 2.2-.5 4.2 2 4.2 1.2 0 2.5-.6 3.8-1.6l-.7 1.3h3l4.6-7.8c4.6-5.8 6.7-5 5.4-2.9l-4 6.8C185 75 186 77 188.4 77c1.8 0 3.8-1.3 5.7-3.2.2 1.9 1.7 3.2 4.1 3.2 3.4 0 6.8-2.6 9.3-5.5-.2-.4-.7-.8-1.1-1l-.2.2c-2.2 2.5-5 4.5-7 4.5s-3-1.2-1.7-3.6l.3-.5c2 .8 5.6.5 8-3.4l.3-.8c1.7-2.7.1-4.8-2.4-4.8a6.4 6.4 0 00-5.6 3.5l-3 5-.1.1c-2.2 2.5-4.3 4.5-5.7 4.5-.6 0-1-.5-.3-1.6l4.3-7.6c1.3-2.3.1-3.9-1.6-3.9-1.3 0-2.7.7-4.2 2.3l4.8-8.3h-3l-8.4 14.4-.2.2c-2.2 2.5-4.3 4.5-5.6 4.5-.7 0-1-.5-.4-1.6l6.5-11.2h2.5l.8-1.4H182l2.9-5h-3zm-32.3 5l2.8-5h3l-2.8 5h2.5l-.9 1.4h-2.5l-6.4 11.2c-.7 1.1-.3 1.6.3 1.6 1.4 0 3.5-2 5.7-4.5l.1-.2 1.2-2 1.5-2.6c1.8-3 3.6-3.9 5.9-3.9 2.8 0 4.5 3 2.7 6l-2.9 5c1.6-.1 3.2-.8 4.6-2.3l.2-.2c.4.2 1 .6 1.1 1a9.2 9.2 0 01-6.2 3h-.6c-3.3 4-8.6 3.3-8.6-.5-1.9 1.7-3.8 3-5.6 3-2.4 0-3.3-2-2-4.2l6-10.4H146l.8-1.4h2.8zm10.8 6c1-1.8.5-3-.5-3-.7-.1-1.8.5-2.7 2l-1.5 2.5-2.3 3.9c-1.8 3 1.7 3.5 3.1 1.1a2 2 0 01-.3-1c0-1 .8-1.8 1.8-1.8h.2l2.2-3.7zm43.3 0c1-1.8.5-2.7-.5-2.7-.8 0-1.8.7-2.5 2l-2 3.4c1.1.4 3 .4 4.5-2l.5-.8zm43.8-8.1c-1.7 1.5-1.9 3.2-.8 4.6l.3.3c-1.4 2-3.2 4.4-5.1 6.7l-.2.2A6.5 6.5 0 01237 73l2.9-4.8c1.8-3.1.1-6.1-2.7-6.1-2.4 0-4.2 1-5.9 3.9l-1.5 2.6-1.2 2-.2.2a20.1 20.1 0 01-7 5.7l6.8-11.4h-1.8c0-1.3-1.3-2.9-3.2-2.9-1.6 0-3.9 1.3-5.1 3.5l-4.3 7.2c-1.3 2.2-.4 4.2 2 4.2 1 0 2-.3 3-1l-.9 1.4c-4 1.3-6.6 2.9-6.6 5.1 0 3 4.4 3.5 6.6-.2l2.3-3.9c2.4-.7 4.8-2.1 7.2-4.5 0 3.9 5.4 4.6 8.7.5h.6c1.8 0 4.7-1 6.2-2.9 1.5-1.6 2.6-3.1 5-6.4l.4.5c.4.5.5 1.1.2 1.7l-3.2 5.5c-1.3 2.2-.4 4.2 2 4.2 1.6 0 3.2-1 4.9-2.4 0 1.4.9 2.4 2.6 2.4.8 0 1.9-.3 2.9-1l-.9 1.4c-4 1.3-6.6 2.9-6.6 5.1 0 3 4.5 3.5 6.6-.2l2.3-3.9c2.5-.8 4.9-2.2 7.4-4.6.1 1.9 1.7 3.2 4.1 3.2 2.5 0 4.9-1.3 7-3.2-.1 4 5.3 4.7 8.6.6h.7c1 0 2.2-.3 3.3-.8-.8 2 0 3.4 1.7 3.4s3.5-1.5 5-2.8c-.3 1.6.6 2.8 2.5 2.8 2.5 0 5.4-2.6 8-5.5 1.3-1.5 2.5-3.2 3.5-4.5l.7-1a18 18 0 00-.8 3.7c-.3 2.6-.7 5-2.6 5-1 0-1.4-1-1.4-1l-2 1s.6 2.3 3.4 2.3h.9c3-.5 6.1-2.9 8.4-5.5-.2-.4-.7-.9-1.1-1l-.2.2c-1 1.3-2.3 2.3-3.7 3.3.4-1.2.6-2.5.8-4 .4-2.2.7-4.7 1.9-7l-2.3-1.3-.8 1.2c-1.5 2-3.7 5-6 7.6l-.1.2c-2.2 2.5-4.3 4.5-5.6 4.5-.7 0-1-.5-.4-1.6l6.4-11.2h-3l-5.3 9.3c-2.3 2-4.1 3.2-4.7 3-.7-.4 0-1.4.3-2v-.1l6-10.2h-3l-4.8 8.1-.2.2a6.5 6.5 0 01-4.5 2.2l2.8-4.8c1.8-3.1.2-6.1-2.7-6.1-2.3 0-4.1 1-5.8 4l-1.5 2.5-1.3 2-.1.2c-2.2 2.5-5 4.5-7.1 4.5-1.9 0-3-1.2-1.6-3.6l.3-.5c2 .8 5.6.5 7.9-3.4l.4-.8c1.6-2.7 0-4.8-2.4-4.8a6.4 6.4 0 00-5.6 3.5l-3 5-.1.1a20.1 20.1 0 01-7 5.7L267 65h-1.8c0-1.3-1.3-2.9-3.1-2.9-1.7 0-4 1.3-5.2 3.5l-3 4.9-.1.2c-2.2 2.5-4.3 4.5-5.7 4.5-.6 0-1-.5-.3-1.6l3-5.3c1-1.8.6-2.8-.4-4l-1.7-2c-.4-.6-.4-1.2.2-1.7l-1.6-1.7zm-9.9 8c1-1.7.6-2.9-.4-3-.8 0-1.8.6-2.8 2.1l-1.4 2.5-2.3 3.9c-1.8 3 1.7 3.5 3 1.1h.1a2 2 0 01-.3-1c0-1 .8-1.8 1.8-1.8h.1l2.2-3.7zm49.8-3c1 .1 1.4 1.3.4 3l-2.2 3.8h-.2c-1 0-1.7.8-1.7 1.8 0 .3 0 .7.3 1-1.5 2.4-5 2-3.1-1.1l2.2-4 1.5-2.4c1-1.5 2-2.1 2.8-2zM276 67c1-1.7.4-2.6-.5-2.6-.8 0-1.8.7-2.6 2l-2 3.4c1.2.4 3.2.4 4.6-2l.5-.8zm-53-2.4c1 0 1.7 1 1 2.4l-2.4 4c-1.8 2.9-3.6 4.3-5 4.3-.6 0-1-.5-.3-1.6l4.2-7.3c.8-1.2 1.8-1.8 2.6-1.8zM263 67c.9-1.5.2-2.4-.8-2.4-.8 0-1.8.6-2.5 1.8l-4.2 7.3c-.7 1.1-.4 1.6.3 1.6 1.3 0 3.1-1.4 5-4.3l2.2-4zm-46.1 12.5c-2.3 1-3 1.8-3 2.6s1 1 1.6-.2l1.3-2.4zm38.9 0zm0 0l-1.4 2.4c-.6 1.2-1.6 1-1.6.2s.7-1.7 3-2.6zM101 67.8h29v2h-29v-2zm256 0h-29v2h29v-2z" fill="#766458"/><path fill-rule="evenodd" clip-rule="evenodd" d="M194.8 37.4V45H174V.4h20.8V8h-13.2v10.8h10.6v7.7h-10.6v10.9h13.2zm21.4 7.7v-7.7h-10.6V.4H198V45h18.2zm106.5 0v-7.7h-13.2V26.5H320v-7.7h-10.5V8h13.2V.4h-20.8V45h20.8zM297.5.4h-7.6L283.1 22 276.3.4h-7.5V45h7.6v-22l3 11.4h7.4l3-11.4v22h7.7V.4zM258 8h-5.5v29.4h5.5V8zm7.7-3c0-2.5-2.2-4.6-4.7-4.6h-11.4a4.7 4.7 0 00-4.7 4.7v35.3c0 2.5 2 4.7 4.7 4.7H261c2.5 0 4.7-2.2 4.7-4.7V5zM233 28.7l7.6-1.8v13.6c0 2.5-2.1 4.7-4.6 4.7h-11.5a4.7 4.7 0 01-4.7-4.7V5c0-2.6 2.1-4.7 4.7-4.7H236c2.5 0 4.6 2 4.6 4.7v9L233 16V8h-5.6v29.4h5.6v-8.8zM170.2.4h-7.6l-.6 37h-.8l-4.9-37h-7.5l-4.8 37h-.8l-.6-37H135L136 45h14.5l2-18.5 2 18.5H169L170.2.4z" fill="#81B3D3"/><path fill-rule="evenodd" clip-rule="evenodd" d="M9.7 190.1v.2A52 52 0 0017 197c2.7 2 5.8 3 9.2 3.2l.2.1h.3l.3.1h1.3l1-.2c1.2-.2 2.4-.7 3.5-1.4s2-1.5 2.7-2.5l.2-.5.2-.5a13.9 13.9 0 00.5-2.8c0-2-1-3.8-2.8-5.2a20 20 0 00-8.3-4c-.7-.3-1.4-.5-2.2-.6H23l-.2-.1A38 38 0 0112 178a16 16 0 01-6.9-8.9l-.7-2.4a27.9 27.9 0 01-.4-3.5v-2.8l.3-1.9c.3-1.6.7-3.1 1.2-4.6.5-1.6 1.2-3 2-4.2 2.6-4.1 5.7-7 9.6-8.8a29.6 29.6 0 0118.6-2.1 44.3 44.3 0 0116 6.2l-6.5 14.2c-2-1.5-4.3-2.9-6.6-4a16.6 16.6 0 00-7.6-1.8h-.9c-1.8.3-3.4 1-5 2.5-1.5 1.3-2.3 2.7-2.3 4.3v.7l.3.6c.2.6.5 1 .9 1.6a10 10 0 005 3.2 202.6 202.6 0 0012.8 3.7 18 18 0 019.8 7.8c2.2 3.6 3.3 7.4 3.4 11.4v.6c0 .4 0 .9-.2 1.4v1.2c-.4 4-1.7 7.9-3.9 11.5a21.5 21.5 0 01-12.5 10 82.3 82.3 0 01-7.7 1.5c-1.1.2-2.2.3-3.4.3H26A39 39 0 01.4 205L9.7 190zM225.6 144a36.9 36.9 0 00-19 27 23.5 23.5 0 00-.7 6.2 38.6 38.6 0 0021 34.2 38 38 0 0015.3 4.3h1.5l1.6.2c7.6 0 14.8-2.1 21.7-6.2a37.4 37.4 0 0013.5-50.3 36.2 36.2 0 00-21-18.2 41.1 41.1 0 00-34 2.8zm73.1 70v-74h19.5l27.9 38 2 3.5 2 3.6 1.3 3 1.4 3c0-.9-.2-1.7-.3-2.5a270.7 270.7 0 01-.7-12.2V140h19.4v74h-19.4l-28.1-38.3c-.8-.9-1.5-2-2.2-3.2a65.9 65.9 0 01-3.4-7 51 51 0 00-1.2-2.8 111 111 0 011.3 14.8v36.4h-19.5zm107.5-74l-25.5 74h20l3.8-13.3h28.6l3.7 13.3H457l-25.6-74h-25.2zm2.6 46.4l7.6-24.5a49.8 49.8 0 001.6-6.6l.1-.4.1-.4a40.3 40.3 0 01.6-2.6 40.6 40.6 0 01.6 2.6 86.4 86.4 0 002 7.4l7.5 24.5h-20zm-145.3-.7c.3-.8.5-1.6.6-2.5a14.7 14.7 0 00.6-4.2 10.6 10.6 0 000-2.9v-1.4c-.4-3.3-1.4-6.5-3-9.6a17.8 17.8 0 00-6.8-7.2 30.8 30.8 0 00-4.6-1.9 24 24 0 00-4.6-.5 19.3 19.3 0 00-17.9 13.6l-.3.4v.5l-.5 2.2-.5 2.2-.2 1.6v3.3c.3 4 1.6 8 3.8 11.7 2.3 3.6 5.5 6 9.5 7.2l1.4.5 1.5.2 1.4.2h1.4c4.1 0 7.8-1.2 11-3.6 3.4-2.4 5.8-5.7 7.2-9.8zm-94 26.5c4.3-1 8.2-2.6 11.9-5.1a32 32 0 0010.3-12.6 41.2 41.2 0 004-15.9v-2.9l-.1-1.4a40.3 40.3 0 00-4.1-15.3c-2.4-5-5.8-9-10.1-12a30.3 30.3 0 00-11.3-5 72.5 72.5 0 00-15.9-2h-25v74h27.5c4.3-.3 8.6-.9 12.8-1.8zM149 197.3c.2 0 .5 0 .7.2h4.7c.9 0 1.7 0 2.5-.2 2-.1 4-.5 6-1a15.5 15.5 0 0010.7-9.6c1.1-3.1 1.8-6.4 1.7-9.7v-1-.8c-.2-3-1-5.8-2.2-8.5-1.2-2.8-2.9-5-5-6.6a13.3 13.3 0 00-5.5-2.7c-2-.5-4-.7-6-.8H149v40.7zM69 140v74h45.5v-16.7H88.9v-12.5h24V169H89v-12.9h25.6V140H69zm282.4 196.4l-.1.8c0 .8.2 1.3.7 1.7.5.4 1 .6 1.7.6 0 .3-.1.7-.3 1a3 3 0 01-.7.7l-.8.6-.9.3 1.4 2h.1l.3-.2a11.9 11.9 0 001.6-.9 5.7 5.7 0 002.1-2.6 6 6 0 00.5-2.3c0-.5 0-.9-.2-1.3s-.3-.8-.6-1a3 3 0 00-1-.8l-1.4-.2a2.6 2.6 0 00-1.9.8l-.5.8zm7.7.8a2.5 2.5 0 01.7-1.6 2.6 2.6 0 011.9-.8 2.9 2.9 0 012.4 1l.5 1 .2 1.3a6 6 0 01-1.7 4.3l-.9.6a8.2 8.2 0 01-1.6 1l-.4.1-1.3-2 .8-.3.9-.6c.2-.2.5-.4.6-.7.2-.3.3-.7.3-1-.6 0-1.2-.2-1.7-.6a2 2 0 01-.7-1.7zM94.4 279.4l.1-.9a2 2 0 00-.7-1.6c-.5-.4-1-.6-1.7-.6 0-.4.1-.7.3-1l.6-.8 1-.5.7-.4-1.3-2-.4.2a13.6 13.6 0 00-1.6 1c-.3.1-.6.3-.8.6a6 6 0 00-1.8 4.3c0 .4 0 .8.2 1.3a3 3 0 001.6 1.8l1.3.2c.8 0 1.5-.3 2-.8l.5-.8zm-7.7-.9a2.5 2.5 0 01-1.5 2.3l-1.1.2c-.4 0-.9-.1-1.3-.3a3 3 0 01-1-.7 3 3 0 01-.6-1 4 4 0 01-.2-1.3 6 6 0 013.5-5.5l.7-.4c.2 0 .3-.1.3-.2l1.4 2-.8.4-.9.5a3 3 0 00-.7.8l-.3 1c.7 0 1.3.2 1.8.6.4.4.7.9.7 1.6zm249.2 56.9H332l12-20.6h3.7l-11.8 20.6zm-4 1.5c-1.3 0-2.2 1-2.2 2.2 0 1.2 1 2.2 2.2 2.2a2.2 2.2 0 100-4.4zm-25.3-7.4l-1 1.9c.7 2.4 4 1 5.2-1l1.8-3c1.3-2.3-1.6-4-6 2zm24 4.8c-.2-.5-.9-1.1-1.4-1.3l-.3.3c-1.3 1.6-2.8 3-4.5 4.1a30 30 0 001-5c.4-2.8.8-6 2.3-9l-2.9-1.5-1 1.4a148 148 0 01-7.4 9.7l-.2.3c-2.8 3.2-5.4 5.7-7.1 5.7-.8 0-1.6-.9-1.6-2.6V335c2.6.3 5.4-1.4 7.2-4.5l1-1.8c3.5-6-2.2-8-6-4.5l5.3-9.3h-3.8l-10.7 18.7a3 3 0 00-.7-.5l-.3.3c-2.7 3.2-6.2 5.7-8.8 5.7-2.4 0-3.7-1.5-2-4.5l3.9-6.8c2.2-3.7 6-3.1 3.8.8l-.6 1h3.1l.6-1c2-3.5 0-6-3-6a8 8 0 00-7.1 4.3l-3.8 6.4-.2-.2-.3.3c-2.7 3.2-5.3 5.7-7 5.7-.8 0-1.3-.6-.4-2l8-14.2H282l-6.7 11.7c-2.8 2.6-5 4-5.8 3.8-.9-.4-.1-1.7.4-2.5v-.2l7.5-12.8h-3.8l-7.4 12.7-2 1.3-1.1.6c.4-1.4.7-3 1-5 .4-2.8.8-6 2.2-9l-2.8-1.5a501 501 0 01-13.7 17.7c.3.5.9 1 1.4 1.3 2.2-2.4 9.3-11.7 10.7-13.5a23 23 0 00-1 4.7c-.5 3.2-1 6.3-3.3 6.3-1.3 0-1.8-1.4-1.8-1.4l-2.3 1.3s.7 3 4.1 3h1.1v-.1a16 16 0 006.4-2.4c0 1.6 1 2.5 2.5 2.5 2.1 0 4.4-1.9 6.2-3.6-.3 2 .9 3.6 3.3 3.6 2.3 0 5-1.9 7.4-4.4 0 2.6 2 4.4 5.1 4.4 3.1 0 6.1-1.7 8.8-4l-2.1 3.6h3.8l4.3-7.5v3c0 3.3.6 5 3.7 5s6.7-3.4 9.8-7v-.1a95.4 95.4 0 005.4-6.9c-.5 1.4-.7 3-1 4.7-.4 3.2-.9 6.3-3.3 6.3-1.2 0-1.7-1.4-1.7-1.4l-2.4 1.3s.7 3 4.1 3h1.1l.1-.1c3.9-.5 7.7-3.6 10.5-6.9zm-114.8-1h.2l2.8-4.8c2.3-3.9-1.4-5.7-4-1.2l-1.8 3.1-3 5c-2.2 4 2.2 4.5 4 1.4-.2-.4-.4-.8-.4-1.3 0-1.2 1-2.3 2.2-2.3zm-25.2 14c-.8 1.5-2 1.3-2 .3s.8-2.1 3.7-3.3l-1.7 3zm-34.9-8.3c1.6 0 3.9-1.8 6.1-5.4l3-5.1c1.8-3.4-2.2-4.3-4.2-.8l-5.3 9.2c-.9 1.5-.4 2 .4 2zm-6-20.1c1.2-2 2.4-2.8 3.5-2.8 1.4 0 2 1 2 2.4 0 3.5-4.3 10.8-10.1 9.8h-.8l5.5-9.4zm92.6 14.4l.3-.3c.5.2 1.1.8 1.4 1.3-3.1 3.6-6.7 7-9.9 7-3 0-4.1-2.6-2.5-5.4l4.9-8.5c1.6-2.8-1-3.8-6.8 3.5l-5.7 10H220l2.6-4.4a11 11 0 01-5 1.5h-.8c-4.2 5.3-11.2 4.1-10.7-1.1a23.8 23.8 0 01-9.6 6.1l-2.9 5c-2.7 4.7-8.2 3.9-8.2.3 0-2.9 3.2-5 8.3-6.5l2-3.6c-1.7 1.6-3.7 3-5.5 3-2 0-2.9-1.3-2.4-3.3-2.2 2-4.4 3.4-6.5 3.4-3 0-4.1-2.6-2.6-5.4l5-8.5c1.6-2.8-1-3.8-6.8 3.5l-5.7 10h-3.9l1.4-2.4c-2 1.7-3.9 2.8-5.7 2.8-2 0-3-1-3.3-2.5-1.8 1.5-3.7 2.5-5.2 2.5-2.7 0-3.9-2-3-4.4l-.3.2c-2.4 2.4-4.3 4.2-8.4 4.2-5.4 0-7-5.1-4.3-9.7l1.2-2a8.5 8.5 0 01-4.8-7.5c0-2.5 1.2-5 3.9-7l1.2 2.2a6 6 0 00-2.4 4.8 6 6 0 003.4 5.3l5.9-10c1.7-3 4.1-4.5 6.2-4.5 2.8 0 5 2.2 5 5.6 0 1.5-.5 3.2-1.5 5a13.4 13.4 0 01-13.7 7.2l-1.1 1.8c-2.2 3.9-.7 6.5 1.9 6.5 3.7 0 5.8-2.5 8.4-5.5l.2-.2.2-.3c.3 0 .6.3.8.5l4-6.8c1.5-2.7 4.4-4.3 6.4-4.3 2.5 0 4.1 2.2 4 3.8h2.1l-6.1 10.7c-.9 1.5-.4 2 .4 2 1.7 0 4.4-2.5 7-5.6l.3-.3.4.2 6-10.4h3.8l-1.4 2.4c1.9-2 3.6-2.8 5.2-2.8 2.1 0 3.7 2 2 5l-5.4 9.5c-.9 1.5-.4 2 .5 2 1.6 0 4.3-2.5 7-5.6l.3-.3.3.2 6-10.4h3.8l-7.4 12.8v.2c-.6.8-1.3 2-.5 2.4.8.4 3-1.1 6-3.8l6.6-11.6h3.8L198 340.5c3-1.3 5.7-3.6 8.8-7.2l.2-.3.4.2 1.6-2.8 1.9-3.2c2.1-3.8 4.4-5 7.3-5 3.6 0 5.7 3.8 3.4 7.7l-3.6 6.2c2 0 4-1 5.7-2.8l.3-.3.5.3 6-10.6h3.8l-1.4 2.5c1.9-2 3.6-2.8 5.2-2.8 2.1 0 3.7 2 2 5l-5.4 9.5c-.8 1.5-.4 2 .5 2 1.6 0 4.3-2.5 7-5.6zm118.9-35.9c-2.3 3.8-4.6 5.5-6.2 5.5-.9 0-1.3-.5-.5-2l5.3-9.2c2-3.5 6-2.6 4.2.8l-2.8 5zm-42.3 5.5c1.6 0 3.8-1.7 6.1-5.3l3-5.1c1.8-3.4-2.2-4.3-4.3-.8l-5.2 9.2c-.9 1.5-.4 2 .4 2zm-33.8 8.5c-.8 1.4-2 1.2-2 .2s.8-2.2 3.7-3.3l-1.7 3zm11.4-31.3c-1 0-2.3.9-3.4 2.8l-5.4 9.4h.7c9.7 2.3 14.1-12.2 8.1-12.2zm74.3 16.9l-.3.3c-2.7 3.1-5.3 5.6-7 5.6-.9 0-1.3-.5-.5-2l12.8-22.2h-3.7l-5.6 9.6c-.7-1-1.9-2-3.5-2-2 0-4.8 1.7-6.4 4.4l-3.7 6.4-.3-.1-.2.3c-2.7 3.1-5 5.6-6.7 5.6-.8 0-1.3-.5-.4-2l5.4-9.6c1.7-2.9.1-5-2-5-1.6 0-3.3 1-5.2 3l1.4-2.6H341l-6 10.5-.4-.2-.3.3c-2.7 3.1-5.3 5.6-7 5.6-.8 0-1.3-.5-.4-2l6-10.7h-2c0-1.6-1.6-3.8-4-3.8-2 0-4.9 1.6-6.5 4.3l-3.7 6.3-.2.3c-2.7 3.1-5.7 5.6-7.4 5.6-.8 0-1.3-.5-.4-2l3.8-6.6c1.3-2.3.6-3.7-.6-5.2l-2-2.5c-.6-.7-.6-1.5.1-2.2l-2-2.1c-2 1.9-2.3 4-1 5.8l.4.4-.1.2c-1.7 2.3-3.9 5.5-6.3 8.3a2.6 2.6 0 00.3.3 25 25 0 01-8.8 7.2l4.8-8.2h-3.7l-.4.6c-2 3.5-4.3 6-7.3 6-2.5 0-3-2.5-.8-6.4l1-1.8 2.2.1c13.5 0 20-18 8.1-18-2 0-4.5 1.5-6.2 4.5l-5.9 10.1a6 6 0 01-3.4-5.4 6 6 0 012.5-4.7l-1.3-2.2a8.6 8.6 0 00-3.9 7c0 3 1.7 6 4.8 7.5l-1.1 2c-2.7 4.6-2.2 9.7 3.1 9.7 1.6 0 3-.5 4.1-1.2l-1 1.7c-5 1.5-8.2 3.6-8.2 6.4 0 3.7 5.5 4.4 8.2-.2l3-5c3.9-1.2 7.7-4 11.9-8.7l-.3-.4c1.7-2 3.1-3.8 6-7.7l.5.6c.5.6.6 1.4.2 2.2l-4 6.9c-1.6 2.8-.5 5.4 2.6 5.4 1.9 0 4.3-1.3 6.4-3 0 1.7 1.1 3 3.3 3 1.5 0 3.4-1 5.2-2.5.2 1.4 1.4 2.5 3.3 2.5 1.8 0 3.8-1.2 5.7-2.8l-1.4 2.4h3.8l5.8-10c5.8-7.3 8.4-6.3 6.7-3.5l-4.9 8.5c-1.6 2.8-.5 5.4 2.6 5.4 2 0 3.8-1.4 6-3.4-.2 2 1 3.4 3.3 3.4 1.5 0 3.4-1 5.2-2.5.2 1.4 1.3 2.5 3.3 2.5 3 0 6.7-3.4 9.8-7-.3-.5-1-1.1-1.4-1.3zm-108.5-4.5c2.2-4-1.6-4.6-3.8-.8l-2.4 4.2c1.4.5 3.8.6 5.6-2.5l.6-1zm-6.8 12.8c4.2 0 8.5-3.4 11.6-7-.2-.5-.9-1.1-1.4-1.3l-.3.3c-2.7 3.1-6.2 5.6-8.8 5.6-2.3 0-3.7-1.4-2-4.5l.4-.6c2.4 1 7 .5 9.8-4.4l.6-1c2-3.4 0-6-3-6a8 8 0 00-7.1 4.3l-3.7 6.3h-.1l-.3.3c-2.7 3.1-5.4 5.6-7 5.6-.9 0-1.3-.5-.5-2l5.5-9.6c1.6-2.9 0-5-2-5-1.7 0-3.4 1-5.3 3l6-10.6h-3.8l-10.6 18.5-.4-.2-.3.3c-2.7 3.1-5.4 5.6-7 5.6-.9 0-1.4-.5-.5-2l8.1-14.2h3.1l1-1.8h-3l3.5-6.2h-3.8l-3.5 6.2h-3.4l-1.1 1.8h3.4L222 300c-1.6 2.8-.4 5.4 2.6 5.4 1.9 0 4-1.2 6-3l-1.5 2.6h3.8l5.7-10c5.8-7.3 8.4-6.3 6.8-3.5l-5 8.5c-1.5 2.8-.4 5.4 2.7 5.4 2.2 0 4.8-1.8 7.2-4.2.1 2.4 2 4.2 5.2 4.2zm-123.7-12.8c2.2-4-1.6-4.6-3.8-.8l-2.5 4.2c1.5.5 3.9.6 5.7-2.5l.6-1zm19.3 8.4l5.3-9.2c2-3.5 6-2.6 4.2.8l-3 5.1c-2.3 3.6-4.5 5.3-6 5.3-.9 0-1.4-.5-.5-2zm57.8-8.4c2.2-4-1.6-4.6-3.8-.8l-2.5 4.2c1.5.5 3.9.6 5.7-2.5l.6-1zm-61.6 8.7c-.7 2.2.5 4 3.1 4 1.5 0 3.4-1 5.2-2.4.2 1.4 1.4 2.5 3.3 2.5 2 0 4.2-1.4 6.4-3.4-.4 2 .5 3.4 2.4 3.4 2 0 4.4-2 6.2-3.7-.4 2 .8 3.7 3.2 3.7 3.2 0 6.7-3.4 9.9-7v-.1h-.1l4.3-5.6 1-1.2a23 23 0 00-1 4.6c-.5 3.3-1 6.4-3.4 6.4-1.2 0-1.8-1.4-1.8-1.4l-2.3 1.2s.7 3 4.1 3h1.1c2.9-.4 5.6-2.1 8-4.3 0 2.5 2 4.4 5.1 4.4 4.3 0 8.6-3.4 11.7-7-.3-.5-1-1.1-1.4-1.3l-.3.3c-2.7 3.1-6.2 5.6-8.8 5.6-2.4 0-3.7-1.4-2-4.5l.4-.6c2.4 1 7 .5 9.8-4.4l.5-1c2-3.4.1-6-3-6a8 8 0 00-7 4.3l-3.7 6.3h-.1l-.3.3c-1.3 1.5-2.8 3-4.5 4 .5-1.3.7-3 1-4.9.4-2.8.8-6 2.3-9l-2.9-1.5-1 1.4c-1.8 2.5-4.6 6.4-7.4 9.7l.1.1-.1.2c-2.7 3.1-5.4 5.6-7 5.6-.9 0-1.4-.5-.5-2l8-14.2h-3.7l-6.7 11.8c-2.9 2.6-5.1 4-5.8 3.7-1-.4-.2-1.6.3-2.4l.1-.1v-.1l7.4-12.9h-3.8l-6 10.4-.3-.1-.2.3c-2.7 3.1-5.4 5.6-7 5.6-.9 0-1.4-.5-.5-2l6.1-10.7h-2.1c.1-1.6-1.5-3.8-4-3.8-2 0-4.9 1.6-6.5 4.3l-3.8 6.6-.6-.3-.2.3c-2.8 3.1-5.9 5.6-8.5 5.6-2.4 0-3.7-1.4-2-4.5l3.9-6.7c2.2-3.8 6-3.1 3.8.8l-.6 1h3.1l.6-1c2-3.5 0-6.1-3-6.1-3.1 0-5.2 1.6-6.8 4.3l-3.7 6.5-.4-.2-.2.3c-2.8 3.1-6 5.6-8.6 5.6-2.4 0-3.8-1.4-2-4.5l.4-.6c2.4 1 7 .5 9.8-4.4l.5-1c2-3.4.1-6-3-6a8 8 0 00-7 4.3l-4 6.8c-2.4 4-.3 7.8 4.1 7.8 3.4 0 6-2 8.8-4.7 0 2.7 1.9 4.7 5.1 4.7 3.1 0 5.8-1.8 8.5-4zM113.5 282l-3.1 5.2c3.9 0 6-.9 7.4-3.6 2-3.5-1.6-6.3-4.3-1.6zm-7.2 22.5c-2.2 0-4-.5-5.4-1.3l1.9-2.7 6.3-11h1c9 2 5.4 15-3.8 15zm9.4-15.5c7.6-2.6 8.2-12.1.7-12.1-2.1 0-4.6 1.4-6.3 4.4L100 298.9l-1.4 2.1c-2.6-3.6-1.9-9 1.8-11.3l-1.5-2c-8 5.1-5.6 19.7 7.6 19.7 11.3 0 16.5-13.6 9.3-18.4z" fill="#fff"/></svg>